{
  "accessors": [
    {
      "bufferView": 2,
      "componentType": 5126,
      "count": 64,
      "max": [
        541.8661499023438,
        636.0809326171875,
        173.424072265625
      ],
      "min": [
        -573.5543212890625,
        -667.7613525390625,
        149.44375610351563
      ],
      "type": "VEC3"
    },
    {
      "bufferView": 2,
      "byteOffset": 768,
      "componentType": 5126,
      "count": 64,
      "max": [
        0.284857839345932,
        0.532101035118103,
        1.0
      ],
      "min": [
        -0.28296247124671936,
        -0.532101035118103,
        0.8466809391975403
      ],
      "type": "VEC3"
    },
    {
      "bufferView": 1,
      "componentType": 5126,
      "count": 64,
      "max": [
        0.9333210587501526,
        1.00155770778656
      ],
      "min": [
        0.07868929952383041,
        0.0025576131884008646
      ],
      "type": "VEC2"
    },
    {
      "bufferView": 0,
      "componentType": 5125,
      "count": 198,
      "type": "SCALAR"
    },
    {
      "bufferView": 2,
      "byteOffset": 1536,
      "componentType": 5126,
      "count": 296,
      "max": [
        630.945556640625,
        749.0288696289063,
        149.44378662109375
      ],
      "min": [
        -662.6332397460938,
        -780.709228515625,
        -123.25860595703125
      ],
      "type": "VEC3"
    },
    {
      "bufferView": 2,
      "byteOffset": 5088,
      "componentType": 5126,
      "count": 296,
      "max": [
        0.9881101250648499,
        1.0,
        1.0
      ],
      "min": [
        -0.9881095290184021,
        -1.0,
        -1.0
      ],
      "type": "VEC3"
    },
    {
      "bufferView": 1,
      "byteOffset": 512,
      "componentType": 5126,
      "count": 296,
      "max": [
        1.254925012588501,
        2.094254732131958
      ],
      "min": [
        -0.3814886510372162,
        0.12465214729309082
      ],
      "type": "VEC2"
    },
    {
      "bufferView": 0,
      "byteOffset": 792,
      "componentType": 5125,
      "count": 408,
      "type": "SCALAR"
    },
    {
      "bufferView": 2,
      "byteOffset": 8640,
      "componentType": 5126,
      "count": 64,
      "max": [
        541.8661499023438,
        636.0809936523438,
        -123.25856018066406
      ],
      "min": [
        -573.5543212890625,
        -667.7612915039063,
        -147.2388916015625
      ],
      "type": "VEC3"
    },
    {
      "bufferView": 2,
      "byteOffset": 9408,
      "componentType": 5126,
      "count": 64,
      "max": [
        0.284857839345932,
        0.532101035118103,
        -0.8466809391975403
      ],
      "min": [
        -0.28296247124671936,
        -0.532101035118103,
        -1.0
      ],
      "type": "VEC3"
    },
    {
      "bufferView": 1,
      "byteOffset": 2880,
      "componentType": 5126,
      "count": 64,
      "max": [
        0.9333210587501526,
        1.00155770778656
      ],
      "min": [
        0.07868929952383041,
        0.0025576131884008646
      ],
      "type": "VEC2"
    },
    {
      "bufferView": 0,
      "byteOffset": 2424,
      "componentType": 5125,
      "count": 198,
      "type": "SCALAR"
    },
    {
      "bufferView": 2,
      "byteOffset": 10176,
      "componentType": 5126,
      "count": 672,
      "max": [
        904.509521484375,
        1037.7889404296875,
        111.3654556274414
      ],
      "min": [
        -989.5230712890625,
        -1058.500244140625,
        -85.18033599853516
      ],
      "type": "VEC3"
    },
    {
      "bufferView": 2,
      "byteOffset": 18240,
      "componentType": 5126,
      "count": 672,
      "max": [
        1.0,
        1.0,
        0.9978587031364441
      ],
      "min": [
        -1.0,
        -1.0,
        -0.9978586435317993
      ],
      "type": "VEC3"
    },
    {
      "bufferView": 1,
      "byteOffset": 3392,
      "componentType": 5126,
      "count": 672,
      "max": [
        1.9166666269302368,
        1.0
      ],
      "min": [
        0.0833333432674408,
        0.3999999761581421
      ],
      "type": "VEC2"
    },
    {
      "bufferView": 0,
      "byteOffset": 3216,
      "componentType": 5125,
      "count": 1776,
      "type": "SCALAR"
    }
  ],
  "asset": {
    "extras": {
      "author": "Anthony Yanez (https://sketchfab.com/paulyanez)",
      "license": "CC-BY-4.0 (http://creativecommons.org/licenses/by/4.0/)",
      "source": "https://sketchfab.com/3d-models/thwomp-super-mario-bros-fd2de4fb9d05419a8e461fd9d7d93c00",
      "title": "Thwomp (Super Mario Bros)"
    },
    "generator": "Sketchfab-12.66.0",
    "version": "2.0"
  },
  "bufferViews": [
    {
      "buffer": 0,
      "byteLength": 10320,
      "name": "floatBufferViews",
      "target": 34963
    },
    {
      "buffer": 0,
      "byteLength": 8768,
      "byteOffset": 10320,
      "byteStride": 8,
      "name": "floatBufferViews",
      "target": 34962
    },
    {
      "buffer": 0,
      "byteLength": 26304,
      "byteOffset": 19088,
      "byteStride": 12,
      "name": "floatBufferViews",
      "target": 34962
    }
  ],
  "buffers": [
    {
      "byteLength": 45392,
      "uri": "scene.bin"
    }
  ],
  "images": [
    {
      "uri": "textures/07_-_Default_baseColor.png"
    }
  ],
  "materials": [
    {
      "doubleSided": true,
      "name": "07_-_Default",
      "pbrMetallicRoughness": {
        "baseColorTexture": {
          "index": 0
        },
        "metallicFactor": 0.42854420731707316,
        "roughnessFactor": 0.7116996951219512
      }
    },
    {
      "doubleSided": true,
      "name": "03_-_Default",
      "pbrMetallicRoughness": {
        "baseColorFactor": [
          0.105882,
          0.137255,
          0.141176,
          1.0
        ],
        "metallicFactor": 0.5626905487804879,
        "roughnessFactor": 0.8929713596
      }
    },
    {
      "doubleSided": true,
      "name": "02_-_Default",
      "pbrMetallicRoughness": {
        "baseColorFactor": [
          0.431373,
          0.482353,
          0.466667,
          1.0
        ],
        "metallicFactor": 0.8614710365853658,
        "roughnessFactor": 0.8929713596
      }
    },
    {
      "doubleSided": true,
      "name": "08_-_Default",
      "pbrMetallicRoughness": {
        "baseColorFactor": [
          0.447059,
          0.447059,
          0.447059,
          1.0
        ],
        "metallicFactor": 0.3858612804878049,
        "roughnessFactor": 0.589748475609756
      }
    }
  ],
  "meshes": [
    {
      "name": "Box001_07 - Default_0",
      "primitives": [
        {
          "attributes": {
            "NORMAL": 1,
            "POSITION": 0,
            "TEXCOORD_0": 2
          },
          "indices": 3,
          "material": 0,
          "mode": 4
        }
      ]
    },
    {
      "name": "Box001_03 - Default_0",
      "primitives": [
        {
          "attributes": {
            "NORMAL": 5,
            "POSITION": 4,
            "TEXCOORD_0": 6
          },
          "indices": 7,
          "material": 1,
          "mode": 4
        }
      ]
    },
    {
      "name": "Box001_02 - Default_0",
      "primitives": [
        {
          "attributes": {
            "NORMAL": 9,
            "POSITION": 8,
            "TEXCOORD_0": 10
          },
          "indices": 11,
          "material": 2,
          "mode": 4
        }
      ]
    },
    {
      "name": "Box001_08 - Default_0",
      "primitives": [
        {
          "attributes": {
            "NORMAL": 13,
            "POSITION": 12,
            "TEXCOORD_0": 14
          },
          "indices": 15,
          "material": 3,
          "mode": 4
        }
      ]
    }
  ],
  "nodes": [
    {
      "children": [
        1
      ],
      "matrix": [
        1.0,
        0.0,
        0.0,
        0.0,
        0.0,
        2.220446049250313e-16,
        -1.0,
        0.0,
        0.0,
        1.0,
        2.220446049250313e-16,
        0.0,
        0.0,
        0.0,
        0.0,
        1.0
      ],
      "name": "Sketchfab_model"
    },
    {
      "children": [
        2
      ],
      "matrix": [
        1.0,
        0.0,
        0.0,
        0.0,
        0.0,
        0.0,
        1.0,
        0.0,
        0.0,
        -1.0,
        0.0,
        0.0,
        0.0,
        0.0,
        0.0,
        1.0
      ],
      "name": "Thwomp.FBX"
    },
    {
      "children": [
        3
      ],
      "name": "RootNode"
    },
    {
      "children": [
        4,
        5,
        6,
        7
      ],
      "matrix": [
        -1.0,
        -7.498804663577725e-33,
        1.2246467991473532e-16,
        -0.0,
        -1.9952029513333476e-23,
        -0.9999999999999867,
        -1.629206848433659e-07,
        -0.0,
        -1.224646799147337e-16,
        1.629206848433659e-07,
        -0.9999999999999867,
        -0.0,
        15.479360580444336,
        1053.5989990234375,
        4.549339064396918e-05,
        1.0
      ],
      "name": "Box001"
    },
    {
      "mesh": 0,
      "name": "Box001_07 - Default_0"
    },
    {
      "mesh": 1,
      "name": "Box001_03 - Default_0"
    },
    {
      "mesh": 2,
      "name": "Box001_02 - Default_0"
    },
    {
      "mesh": 3,
      "name": "Box001_08 - Default_0"
    }
  ],
  "samplers": [
    {
      "magFilter": 9729,
      "minFilter": 9987,
      "wrapS": 10497,
      "wrapT": 10497
    }
  ],
  "scene": 0,
  "scenes": [
    {
      "name": "Sketchfab_Scene",
      "nodes": [
        0
      ]
    }
  ],
  "textures": [
    {
      "sampler": 0,
      "source": 0
    }
  ]
}
